<?xml version="1.0" encoding="UTF-8" standalone="no"?>
<!DOCTYPE svg PUBLIC "-//W3C//DTD SVG 1.1//EN"
 "http://www.w3.org/Graphics/SVG/1.1/DTD/svg11.dtd">
<!-- Generated by graphviz version 2.43.0 (0)
 -->
<!-- Title: ast Pages: 1 -->
<svg width="2317pt" height="692pt"
 viewBox="0.00 0.00 2317.00 692.00" xmlns="http://www.w3.org/2000/svg" xmlns:xlink="http://www.w3.org/1999/xlink">
<g id="graph0" class="graph" transform="scale(1 1) rotate(0) translate(4 688)">
<title>ast</title>
<polygon fill="white" stroke="transparent" points="-4,4 -4,-688 2313,-688 2313,4 -4,4"/>
<!-- N0 -->
<g id="node1" class="node">
<title>N0</title>
<polygon fill="none" stroke="black" points="592.5,-684 513.5,-684 513.5,-648 592.5,-648 592.5,-684"/>
<text text-anchor="middle" x="553" y="-662.3" font-family="Times,serif" font-size="14.00">Program</text>
</g>
<!-- N1 -->
<g id="node2" class="node">
<title>N1</title>
<polygon fill="none" stroke="black" points="356.5,-576 273.5,-576 273.5,-540 356.5,-540 356.5,-576"/>
<text text-anchor="middle" x="315" y="-554.3" font-family="Times,serif" font-size="14.00">DeclFunc</text>
</g>
<!-- N0&#45;&gt;N1 -->
<g id="edge6" class="edge">
<title>N0&#45;&gt;N1</title>
<path fill="none" stroke="black" d="M514.76,-647.97C473.42,-629.56 407.46,-600.18 362.74,-580.26"/>
<polygon fill="black" stroke="black" points="364.1,-577.04 353.54,-576.16 361.25,-583.43 364.1,-577.04"/>
</g>
<!-- N7 -->
<g id="node8" class="node">
<title>N7</title>
<polygon fill="none" stroke="black" points="599.5,-576 506.5,-576 506.5,-540 599.5,-540 599.5,-576"/>
<text text-anchor="middle" x="553" y="-554.3" font-family="Times,serif" font-size="14.00">DeclStruct</text>
</g>
<!-- N0&#45;&gt;N7 -->
<g id="edge15" class="edge">
<title>N0&#45;&gt;N7</title>
<path fill="none" stroke="black" d="M553,-647.97C553,-631.38 553,-605.88 553,-586.43"/>
<polygon fill="black" stroke="black" points="556.5,-586.34 553,-576.34 549.5,-586.34 556.5,-586.34"/>
</g>
<!-- N15 -->
<g id="node16" class="node">
<title>N15</title>
<polygon fill="none" stroke="black" points="1038.5,-576 955.5,-576 955.5,-540 1038.5,-540 1038.5,-576"/>
<text text-anchor="middle" x="997" y="-554.3" font-family="Times,serif" font-size="14.00">DeclFunc</text>
</g>
<!-- N0&#45;&gt;N15 -->
<g id="edge46" class="edge">
<title>N0&#45;&gt;N15</title>
<path fill="none" stroke="black" d="M592.79,-655.5C673.34,-636.27 855.63,-592.75 945.26,-571.35"/>
<polygon fill="black" stroke="black" points="946.29,-574.71 955.2,-568.98 944.66,-567.9 946.29,-574.71"/>
</g>
<!-- N2 -->
<g id="node3" class="node">
<title>N2</title>
<polygon fill="none" stroke="black" points="54,-468 0,-468 0,-432 54,-432 54,-468"/>
<text text-anchor="middle" x="27" y="-446.3" font-family="Times,serif" font-size="14.00">main</text>
</g>
<!-- N1&#45;&gt;N2 -->
<g id="edge1" class="edge">
<title>N1&#45;&gt;N2</title>
<path fill="none" stroke="black" d="M273.43,-541.7C217.12,-520.97 117.48,-484.3 63.76,-464.53"/>
<polygon fill="black" stroke="black" points="64.88,-461.21 54.29,-461.04 62.46,-467.78 64.88,-461.21"/>
</g>
<!-- N3 -->
<g id="node4" class="node">
<title>N3</title>
<polygon fill="none" stroke="black" points="260,-468 126,-468 126,-432 260,-432 260,-468"/>
<text text-anchor="middle" x="193" y="-446.3" font-family="Times,serif" font-size="14.00">DectReturnType</text>
</g>
<!-- N1&#45;&gt;N3 -->
<g id="edge2" class="edge">
<title>N1&#45;&gt;N3</title>
<path fill="none" stroke="black" d="M295.4,-539.97C275.15,-522.38 243.39,-494.78 220.61,-474.99"/>
<polygon fill="black" stroke="black" points="222.8,-472.26 212.96,-468.34 218.21,-477.54 222.8,-472.26"/>
</g>
<!-- N4 -->
<g id="node5" class="node">
<title>N4</title>
<polygon fill="none" stroke="black" points="386,-468 332,-468 332,-432 386,-432 386,-468"/>
<text text-anchor="middle" x="359" y="-446.3" font-family="Times,serif" font-size="14.00">Bloc</text>
</g>
<!-- N1&#45;&gt;N4 -->
<g id="edge5" class="edge">
<title>N1&#45;&gt;N4</title>
<path fill="none" stroke="black" d="M322.07,-539.97C329.05,-523.15 339.83,-497.17 347.95,-477.62"/>
<polygon fill="black" stroke="black" points="351.2,-478.92 351.8,-468.34 344.74,-476.23 351.2,-478.92"/>
</g>
<!-- N5 -->
<g id="node6" class="node">
<title>N5</title>
<polygon fill="none" stroke="black" points="207,-360 153,-360 153,-324 207,-324 207,-360"/>
<text text-anchor="middle" x="180" y="-338.3" font-family="Times,serif" font-size="14.00">Print</text>
</g>
<!-- N4&#45;&gt;N5 -->
<g id="edge4" class="edge">
<title>N4&#45;&gt;N5</title>
<path fill="none" stroke="black" d="M331.81,-432.9C300.84,-414.56 250.1,-384.51 215.9,-364.26"/>
<polygon fill="black" stroke="black" points="217.54,-361.16 207.15,-359.08 213.97,-367.18 217.54,-361.16"/>
</g>
<!-- N6 -->
<g id="node7" class="node">
<title>N6</title>
<polygon fill="none" stroke="black" points="161.5,-252 54.5,-252 54.5,-216 161.5,-216 161.5,-252"/>
<text text-anchor="middle" x="108" y="-230.3" font-family="Times,serif" font-size="14.00">Hello World!</text>
</g>
<!-- N5&#45;&gt;N6 -->
<g id="edge3" class="edge">
<title>N5&#45;&gt;N6</title>
<path fill="none" stroke="black" d="M168.43,-323.97C156.85,-306.92 138.88,-280.46 125.54,-260.82"/>
<polygon fill="black" stroke="black" points="128.29,-258.65 119.78,-252.34 122.5,-262.58 128.29,-258.65"/>
</g>
<!-- N8 -->
<g id="node9" class="node">
<title>N8</title>
<polygon fill="none" stroke="black" points="549.5,-468 468.5,-468 468.5,-432 549.5,-432 549.5,-468"/>
<text text-anchor="middle" x="509" y="-446.3" font-family="Times,serif" font-size="14.00">DeclArgs</text>
</g>
<!-- N7&#45;&gt;N8 -->
<g id="edge14" class="edge">
<title>N7&#45;&gt;N8</title>
<path fill="none" stroke="black" d="M545.93,-539.97C538.95,-523.15 528.17,-497.17 520.05,-477.62"/>
<polygon fill="black" stroke="black" points="523.26,-476.23 516.2,-468.34 516.8,-478.92 523.26,-476.23"/>
</g>
<!-- Point -->
<g id="node47" class="node">
<title>Point</title>
<ellipse fill="none" stroke="black" cx="656" cy="-450" rx="34.39" ry="18"/>
<text text-anchor="middle" x="656" y="-446.3" font-family="Times,serif" font-size="14.00">Point</text>
</g>
<!-- N7&#45;&gt;Point -->
<g id="edge7" class="edge">
<title>N7&#45;&gt;Point</title>
<path fill="none" stroke="black" d="M569.55,-539.97C587.02,-521.99 614.65,-493.55 633.96,-473.68"/>
<polygon fill="black" stroke="black" points="636.71,-475.88 641.16,-466.27 631.68,-471 636.71,-475.88"/>
</g>
<!-- N9 -->
<g id="node10" class="node">
<title>N9</title>
<polygon fill="none" stroke="black" points="414,-360 340,-360 340,-324 414,-324 414,-360"/>
<text text-anchor="middle" x="377" y="-338.3" font-family="Times,serif" font-size="14.00">DeclArg</text>
</g>
<!-- N8&#45;&gt;N9 -->
<g id="edge10" class="edge">
<title>N8&#45;&gt;N9</title>
<path fill="none" stroke="black" d="M487.79,-431.97C465.79,-414.3 431.22,-386.54 406.55,-366.73"/>
<polygon fill="black" stroke="black" points="408.58,-363.87 398.59,-360.34 404.2,-369.33 408.58,-363.87"/>
</g>
<!-- N12 -->
<g id="node13" class="node">
<title>N12</title>
<polygon fill="none" stroke="black" points="560,-360 486,-360 486,-324 560,-324 560,-360"/>
<text text-anchor="middle" x="523" y="-338.3" font-family="Times,serif" font-size="14.00">DeclArg</text>
</g>
<!-- N8&#45;&gt;N12 -->
<g id="edge13" class="edge">
<title>N8&#45;&gt;N12</title>
<path fill="none" stroke="black" d="M511.25,-431.97C513.44,-415.38 516.81,-389.88 519.38,-370.43"/>
<polygon fill="black" stroke="black" points="522.87,-370.71 520.71,-360.34 515.93,-369.8 522.87,-370.71"/>
</g>
<!-- N10 -->
<g id="node11" class="node">
<title>N10</title>
<polygon fill="none" stroke="black" points="288,-252 234,-252 234,-216 288,-216 288,-252"/>
<text text-anchor="middle" x="261" y="-230.3" font-family="Times,serif" font-size="14.00">x</text>
</g>
<!-- N9&#45;&gt;N10 -->
<g id="edge8" class="edge">
<title>N9&#45;&gt;N10</title>
<path fill="none" stroke="black" d="M358.36,-323.97C339.2,-306.46 309.18,-279.02 287.53,-259.25"/>
<polygon fill="black" stroke="black" points="289.72,-256.5 279.98,-252.34 285,-261.67 289.72,-256.5"/>
</g>
<!-- N11 -->
<g id="node12" class="node">
<title>N11</title>
<polygon fill="none" stroke="black" points="414,-252 360,-252 360,-216 414,-216 414,-252"/>
<text text-anchor="middle" x="387" y="-230.3" font-family="Times,serif" font-size="14.00">i32</text>
</g>
<!-- N9&#45;&gt;N11 -->
<g id="edge9" class="edge">
<title>N9&#45;&gt;N11</title>
<path fill="none" stroke="black" d="M378.61,-323.97C380.17,-307.38 382.58,-281.88 384.41,-262.43"/>
<polygon fill="black" stroke="black" points="387.91,-262.63 385.36,-252.34 380.94,-261.97 387.91,-262.63"/>
</g>
<!-- N13 -->
<g id="node14" class="node">
<title>N13</title>
<polygon fill="none" stroke="black" points="540,-252 486,-252 486,-216 540,-216 540,-252"/>
<text text-anchor="middle" x="513" y="-230.3" font-family="Times,serif" font-size="14.00">y</text>
</g>
<!-- N12&#45;&gt;N13 -->
<g id="edge11" class="edge">
<title>N12&#45;&gt;N13</title>
<path fill="none" stroke="black" d="M521.39,-323.97C519.83,-307.38 517.42,-281.88 515.59,-262.43"/>
<polygon fill="black" stroke="black" points="519.06,-261.97 514.64,-252.34 512.09,-262.63 519.06,-261.97"/>
</g>
<!-- N14 -->
<g id="node15" class="node">
<title>N14</title>
<polygon fill="none" stroke="black" points="666,-252 612,-252 612,-216 666,-216 666,-252"/>
<text text-anchor="middle" x="639" y="-230.3" font-family="Times,serif" font-size="14.00">i32</text>
</g>
<!-- N12&#45;&gt;N14 -->
<g id="edge12" class="edge">
<title>N12&#45;&gt;N14</title>
<path fill="none" stroke="black" d="M541.64,-323.97C560.8,-306.46 590.82,-279.02 612.47,-259.25"/>
<polygon fill="black" stroke="black" points="615,-261.67 620.02,-252.34 610.28,-256.5 615,-261.67"/>
</g>
<!-- N16 -->
<g id="node17" class="node">
<title>N16</title>
<polygon fill="none" stroke="black" points="884.5,-468 777.5,-468 777.5,-432 884.5,-432 884.5,-468"/>
<text text-anchor="middle" x="831" y="-446.3" font-family="Times,serif" font-size="14.00">testFunction</text>
</g>
<!-- N15&#45;&gt;N16 -->
<g id="edge16" class="edge">
<title>N15&#45;&gt;N16</title>
<path fill="none" stroke="black" d="M970.33,-539.97C942.22,-522.02 897.79,-493.65 866.67,-473.78"/>
<polygon fill="black" stroke="black" points="868.19,-470.6 857.88,-468.16 864.42,-476.5 868.19,-470.6"/>
</g>
<!-- N17 -->
<g id="node18" class="node">
<title>N17</title>
<polygon fill="none" stroke="black" points="1037.5,-468 956.5,-468 956.5,-432 1037.5,-432 1037.5,-468"/>
<text text-anchor="middle" x="997" y="-446.3" font-family="Times,serif" font-size="14.00">DeclArgs</text>
</g>
<!-- N15&#45;&gt;N17 -->
<g id="edge23" class="edge">
<title>N15&#45;&gt;N17</title>
<path fill="none" stroke="black" d="M997,-539.97C997,-523.38 997,-497.88 997,-478.43"/>
<polygon fill="black" stroke="black" points="1000.5,-478.34 997,-468.34 993.5,-478.34 1000.5,-478.34"/>
</g>
<!-- N24 -->
<g id="node25" class="node">
<title>N24</title>
<polygon fill="none" stroke="black" points="1244,-468 1110,-468 1110,-432 1244,-432 1244,-468"/>
<text text-anchor="middle" x="1177" y="-446.3" font-family="Times,serif" font-size="14.00">DectReturnType</text>
</g>
<!-- N15&#45;&gt;N24 -->
<g id="edge25" class="edge">
<title>N15&#45;&gt;N24</title>
<path fill="none" stroke="black" d="M1025.92,-539.97C1056.66,-521.86 1105.41,-493.16 1139.18,-473.27"/>
<polygon fill="black" stroke="black" points="1141.01,-476.25 1147.85,-468.16 1137.46,-470.22 1141.01,-476.25"/>
</g>
<!-- N26 -->
<g id="node27" class="node">
<title>N26</title>
<polygon fill="none" stroke="black" points="1695,-468 1641,-468 1641,-432 1695,-432 1695,-468"/>
<text text-anchor="middle" x="1668" y="-446.3" font-family="Times,serif" font-size="14.00">Bloc</text>
</g>
<!-- N15&#45;&gt;N26 -->
<g id="edge45" class="edge">
<title>N15&#45;&gt;N26</title>
<path fill="none" stroke="black" d="M1038.72,-550.41C1160.61,-531.15 1514.85,-475.19 1630.79,-456.88"/>
<polygon fill="black" stroke="black" points="1631.61,-460.29 1640.94,-455.28 1630.51,-453.38 1631.61,-460.29"/>
</g>
<!-- N18 -->
<g id="node19" class="node">
<title>N18</title>
<polygon fill="none" stroke="black" points="918,-360 844,-360 844,-324 918,-324 918,-360"/>
<text text-anchor="middle" x="881" y="-338.3" font-family="Times,serif" font-size="14.00">DeclArg</text>
</g>
<!-- N17&#45;&gt;N18 -->
<g id="edge19" class="edge">
<title>N17&#45;&gt;N18</title>
<path fill="none" stroke="black" d="M978.36,-431.97C959.2,-414.46 929.18,-387.02 907.53,-367.25"/>
<polygon fill="black" stroke="black" points="909.72,-364.5 899.98,-360.34 905,-369.67 909.72,-364.5"/>
</g>
<!-- N21 -->
<g id="node22" class="node">
<title>N21</title>
<polygon fill="none" stroke="black" points="1064,-360 990,-360 990,-324 1064,-324 1064,-360"/>
<text text-anchor="middle" x="1027" y="-338.3" font-family="Times,serif" font-size="14.00">DeclArg</text>
</g>
<!-- N17&#45;&gt;N21 -->
<g id="edge22" class="edge">
<title>N17&#45;&gt;N21</title>
<path fill="none" stroke="black" d="M1001.82,-431.97C1006.54,-415.3 1013.8,-389.65 1019.31,-370.16"/>
<polygon fill="black" stroke="black" points="1022.74,-370.92 1022.09,-360.34 1016,-369.01 1022.74,-370.92"/>
</g>
<!-- N19 -->
<g id="node20" class="node">
<title>N19</title>
<polygon fill="none" stroke="black" points="792,-252 738,-252 738,-216 792,-216 792,-252"/>
<text text-anchor="middle" x="765" y="-230.3" font-family="Times,serif" font-size="14.00">a</text>
</g>
<!-- N18&#45;&gt;N19 -->
<g id="edge17" class="edge">
<title>N18&#45;&gt;N19</title>
<path fill="none" stroke="black" d="M862.36,-323.97C843.2,-306.46 813.18,-279.02 791.53,-259.25"/>
<polygon fill="black" stroke="black" points="793.72,-256.5 783.98,-252.34 789,-261.67 793.72,-256.5"/>
</g>
<!-- N20 -->
<g id="node21" class="node">
<title>N20</title>
<polygon fill="none" stroke="black" points="918,-252 864,-252 864,-216 918,-216 918,-252"/>
<text text-anchor="middle" x="891" y="-230.3" font-family="Times,serif" font-size="14.00">i32</text>
</g>
<!-- N18&#45;&gt;N20 -->
<g id="edge18" class="edge">
<title>N18&#45;&gt;N20</title>
<path fill="none" stroke="black" d="M882.61,-323.97C884.17,-307.38 886.58,-281.88 888.41,-262.43"/>
<polygon fill="black" stroke="black" points="891.91,-262.63 889.36,-252.34 884.94,-261.97 891.91,-262.63"/>
</g>
<!-- N22 -->
<g id="node23" class="node">
<title>N22</title>
<polygon fill="none" stroke="black" points="1044,-252 990,-252 990,-216 1044,-216 1044,-252"/>
<text text-anchor="middle" x="1017" y="-230.3" font-family="Times,serif" font-size="14.00">b</text>
</g>
<!-- N21&#45;&gt;N22 -->
<g id="edge20" class="edge">
<title>N21&#45;&gt;N22</title>
<path fill="none" stroke="black" d="M1025.39,-323.97C1023.83,-307.38 1021.42,-281.88 1019.59,-262.43"/>
<polygon fill="black" stroke="black" points="1023.06,-261.97 1018.64,-252.34 1016.09,-262.63 1023.06,-261.97"/>
</g>
<!-- N23 -->
<g id="node24" class="node">
<title>N23</title>
<polygon fill="none" stroke="black" points="1170,-252 1116,-252 1116,-216 1170,-216 1170,-252"/>
<text text-anchor="middle" x="1143" y="-230.3" font-family="Times,serif" font-size="14.00">i64</text>
</g>
<!-- N21&#45;&gt;N23 -->
<g id="edge21" class="edge">
<title>N21&#45;&gt;N23</title>
<path fill="none" stroke="black" d="M1045.64,-323.97C1064.8,-306.46 1094.82,-279.02 1116.47,-259.25"/>
<polygon fill="black" stroke="black" points="1119,-261.67 1124.02,-252.34 1114.28,-256.5 1119,-261.67"/>
</g>
<!-- N25 -->
<g id="node26" class="node">
<title>N25</title>
<polygon fill="none" stroke="black" points="1204,-360 1150,-360 1150,-324 1204,-324 1204,-360"/>
<text text-anchor="middle" x="1177" y="-338.3" font-family="Times,serif" font-size="14.00">i32</text>
</g>
<!-- N24&#45;&gt;N25 -->
<g id="edge24" class="edge">
<title>N24&#45;&gt;N25</title>
<path fill="none" stroke="black" d="M1177,-431.97C1177,-415.38 1177,-389.88 1177,-370.43"/>
<polygon fill="black" stroke="black" points="1180.5,-370.34 1177,-360.34 1173.5,-370.34 1180.5,-370.34"/>
</g>
<!-- N27 -->
<g id="node28" class="node">
<title>N27</title>
<polygon fill="none" stroke="black" points="1567.5,-360 1496.5,-360 1496.5,-324 1567.5,-324 1567.5,-360"/>
<text text-anchor="middle" x="1532" y="-338.3" font-family="Times,serif" font-size="14.00">DeclLet</text>
</g>
<!-- N26&#45;&gt;N27 -->
<g id="edge30" class="edge">
<title>N26&#45;&gt;N27</title>
<path fill="none" stroke="black" d="M1646.15,-431.97C1623.48,-414.3 1587.86,-386.54 1562.44,-366.73"/>
<polygon fill="black" stroke="black" points="1564.29,-363.73 1554.25,-360.34 1559.98,-369.25 1564.29,-363.73"/>
</g>
<!-- N32 -->
<g id="node33" class="node">
<title>N32</title>
<polygon fill="none" stroke="black" points="1831,-360 1777,-360 1777,-324 1831,-324 1831,-360"/>
<text text-anchor="middle" x="1804" y="-338.3" font-family="Times,serif" font-size="14.00">Bloc</text>
</g>
<!-- N26&#45;&gt;N32 -->
<g id="edge42" class="edge">
<title>N26&#45;&gt;N32</title>
<path fill="none" stroke="black" d="M1689.85,-431.97C1712.52,-414.3 1748.14,-386.54 1773.56,-366.73"/>
<polygon fill="black" stroke="black" points="1776.02,-369.25 1781.75,-360.34 1771.71,-363.73 1776.02,-369.25"/>
</g>
<!-- N44 -->
<g id="node45" class="node">
<title>N44</title>
<polygon fill="none" stroke="black" points="2033,-360 1967,-360 1967,-324 2033,-324 2033,-360"/>
<text text-anchor="middle" x="2000" y="-338.3" font-family="Times,serif" font-size="14.00">Return</text>
</g>
<!-- N26&#45;&gt;N44 -->
<g id="edge44" class="edge">
<title>N26&#45;&gt;N44</title>
<path fill="none" stroke="black" d="M1695.17,-440.33C1752.81,-421.92 1887.73,-378.84 1957.12,-356.69"/>
<polygon fill="black" stroke="black" points="1958.4,-359.95 1966.87,-353.58 1956.27,-353.29 1958.4,-359.95"/>
</g>
<!-- N28 -->
<g id="node29" class="node">
<title>N28</title>
<polygon fill="none" stroke="black" points="1296,-252 1242,-252 1242,-216 1296,-216 1296,-252"/>
<text text-anchor="middle" x="1269" y="-230.3" font-family="Times,serif" font-size="14.00">s</text>
</g>
<!-- N27&#45;&gt;N28 -->
<g id="edge26" class="edge">
<title>N27&#45;&gt;N28</title>
<path fill="none" stroke="black" d="M1496.26,-326.59C1446.35,-306.48 1356.27,-270.17 1305.8,-249.83"/>
<polygon fill="black" stroke="black" points="1306.85,-246.48 1296.26,-245.99 1304.23,-252.97 1306.85,-246.48"/>
</g>
<!-- N29 -->
<g id="node30" class="node">
<title>N29</title>
<polygon fill="none" stroke="black" points="1422,-252 1368,-252 1368,-216 1422,-216 1422,-252"/>
<text text-anchor="middle" x="1395" y="-230.3" font-family="Times,serif" font-size="14.00">i32</text>
</g>
<!-- N27&#45;&gt;N29 -->
<g id="edge27" class="edge">
<title>N27&#45;&gt;N29</title>
<path fill="none" stroke="black" d="M1509.99,-323.97C1487.06,-306.23 1450.96,-278.3 1425.33,-258.47"/>
<polygon fill="black" stroke="black" points="1427.46,-255.69 1417.41,-252.34 1423.18,-261.23 1427.46,-255.69"/>
</g>
<!-- N30 -->
<g id="node31" class="node">
<title>N30</title>
<polygon fill="none" stroke="black" points="1570,-252 1494,-252 1494,-216 1570,-216 1570,-252"/>
<text text-anchor="middle" x="1532" y="-230.3" font-family="Times,serif" font-size="14.00">Mutable</text>
</g>
<!-- N27&#45;&gt;N30 -->
<g id="edge28" class="edge">
<title>N27&#45;&gt;N30</title>
<path fill="none" stroke="black" d="M1532,-323.97C1532,-307.38 1532,-281.88 1532,-262.43"/>
<polygon fill="black" stroke="black" points="1535.5,-262.34 1532,-252.34 1528.5,-262.34 1535.5,-262.34"/>
</g>
<!-- N31 -->
<g id="node32" class="node">
<title>N31</title>
<polygon fill="none" stroke="black" points="1696,-252 1642,-252 1642,-216 1696,-216 1696,-252"/>
<text text-anchor="middle" x="1669" y="-230.3" font-family="Times,serif" font-size="14.00">5</text>
</g>
<!-- N27&#45;&gt;N31 -->
<g id="edge29" class="edge">
<title>N27&#45;&gt;N31</title>
<path fill="none" stroke="black" d="M1554.01,-323.97C1576.94,-306.23 1613.04,-278.3 1638.67,-258.47"/>
<polygon fill="black" stroke="black" points="1640.82,-261.23 1646.59,-252.34 1636.54,-255.69 1640.82,-261.23"/>
</g>
<!-- N33 -->
<g id="node34" class="node">
<title>N33</title>
<polygon fill="none" stroke="black" points="1839.5,-252 1768.5,-252 1768.5,-216 1839.5,-216 1839.5,-252"/>
<text text-anchor="middle" x="1804" y="-230.3" font-family="Times,serif" font-size="14.00">DeclLet</text>
</g>
<!-- N32&#45;&gt;N33 -->
<g id="edge35" class="edge">
<title>N32&#45;&gt;N33</title>
<path fill="none" stroke="black" d="M1804,-323.97C1804,-307.38 1804,-281.88 1804,-262.43"/>
<polygon fill="black" stroke="black" points="1807.5,-262.34 1804,-252.34 1800.5,-262.34 1807.5,-262.34"/>
</g>
<!-- N38 -->
<g id="node39" class="node">
<title>N38</title>
<polygon fill="none" stroke="black" points="1966,-252 1912,-252 1912,-216 1966,-216 1966,-252"/>
<text text-anchor="middle" x="1939" y="-230.3" font-family="Times,serif" font-size="14.00">Bloc</text>
</g>
<!-- N32&#45;&gt;N38 -->
<g id="edge41" class="edge">
<title>N32&#45;&gt;N38</title>
<path fill="none" stroke="black" d="M1825.69,-323.97C1848.19,-306.3 1883.55,-278.54 1908.78,-258.73"/>
<polygon fill="black" stroke="black" points="1911.21,-261.27 1916.92,-252.34 1906.89,-255.76 1911.21,-261.27"/>
</g>
<!-- N34 -->
<g id="node35" class="node">
<title>N34</title>
<polygon fill="none" stroke="black" points="1568,-144 1490,-144 1490,-108 1568,-108 1568,-144"/>
<text text-anchor="middle" x="1529" y="-122.3" font-family="Times,serif" font-size="14.00">xInBlock</text>
</g>
<!-- N33&#45;&gt;N34 -->
<g id="edge31" class="edge">
<title>N33&#45;&gt;N34</title>
<path fill="none" stroke="black" d="M1768.33,-219.25C1719.66,-200.49 1632.27,-166.8 1577.63,-145.74"/>
<polygon fill="black" stroke="black" points="1578.75,-142.42 1568.16,-142.09 1576.23,-148.96 1578.75,-142.42"/>
</g>
<!-- N35 -->
<g id="node36" class="node">
<title>N35</title>
<polygon fill="none" stroke="black" points="1694,-144 1640,-144 1640,-108 1694,-108 1694,-144"/>
<text text-anchor="middle" x="1667" y="-122.3" font-family="Times,serif" font-size="14.00">i32</text>
</g>
<!-- N33&#45;&gt;N35 -->
<g id="edge32" class="edge">
<title>N33&#45;&gt;N35</title>
<path fill="none" stroke="black" d="M1781.99,-215.97C1759.06,-198.23 1722.96,-170.3 1697.33,-150.47"/>
<polygon fill="black" stroke="black" points="1699.46,-147.69 1689.41,-144.34 1695.18,-153.23 1699.46,-147.69"/>
</g>
<!-- N36 -->
<g id="node37" class="node">
<title>N36</title>
<polygon fill="none" stroke="black" points="1842,-144 1766,-144 1766,-108 1842,-108 1842,-144"/>
<text text-anchor="middle" x="1804" y="-122.3" font-family="Times,serif" font-size="14.00">Mutable</text>
</g>
<!-- N33&#45;&gt;N36 -->
<g id="edge33" class="edge">
<title>N33&#45;&gt;N36</title>
<path fill="none" stroke="black" d="M1804,-215.97C1804,-199.38 1804,-173.88 1804,-154.43"/>
<polygon fill="black" stroke="black" points="1807.5,-154.34 1804,-144.34 1800.5,-154.34 1807.5,-154.34"/>
</g>
<!-- N37 -->
<g id="node38" class="node">
<title>N37</title>
<polygon fill="none" stroke="black" points="1968,-144 1914,-144 1914,-108 1968,-108 1968,-144"/>
<text text-anchor="middle" x="1941" y="-122.3" font-family="Times,serif" font-size="14.00">5</text>
</g>
<!-- N33&#45;&gt;N37 -->
<g id="edge34" class="edge">
<title>N33&#45;&gt;N37</title>
<path fill="none" stroke="black" d="M1826.01,-215.97C1848.94,-198.23 1885.04,-170.3 1910.67,-150.47"/>
<polygon fill="black" stroke="black" points="1912.82,-153.23 1918.59,-144.34 1908.54,-147.69 1912.82,-153.23"/>
</g>
<!-- N39 -->
<g id="node40" class="node">
<title>N39</title>
<polygon fill="none" stroke="black" points="2111.5,-144 2040.5,-144 2040.5,-108 2111.5,-108 2111.5,-144"/>
<text text-anchor="middle" x="2076" y="-122.3" font-family="Times,serif" font-size="14.00">DeclLet</text>
</g>
<!-- N38&#45;&gt;N39 -->
<g id="edge40" class="edge">
<title>N38&#45;&gt;N39</title>
<path fill="none" stroke="black" d="M1961.01,-215.97C1983.94,-198.23 2020.04,-170.3 2045.67,-150.47"/>
<polygon fill="black" stroke="black" points="2047.82,-153.23 2053.59,-144.34 2043.54,-147.69 2047.82,-153.23"/>
</g>
<!-- N40 -->
<g id="node41" class="node">
<title>N40</title>
<polygon fill="none" stroke="black" points="1908.5,-36 1777.5,-36 1777.5,0 1908.5,0 1908.5,-36"/>
<text text-anchor="middle" x="1843" y="-14.3" font-family="Times,serif" font-size="14.00">xInBlockInBlock</text>
</g>
<!-- N39&#45;&gt;N40 -->
<g id="edge36" class="edge">
<title>N39&#45;&gt;N40</title>
<path fill="none" stroke="black" d="M2040.36,-108.79C2000.01,-90.43 1934.14,-60.46 1889.71,-40.25"/>
<polygon fill="black" stroke="black" points="1891.12,-37.05 1880.57,-36.09 1888.22,-43.42 1891.12,-37.05"/>
</g>
<!-- N41 -->
<g id="node42" class="node">
<title>N41</title>
<polygon fill="none" stroke="black" points="2035,-36 1981,-36 1981,0 2035,0 2035,-36"/>
<text text-anchor="middle" x="2008" y="-14.3" font-family="Times,serif" font-size="14.00">i32</text>
</g>
<!-- N39&#45;&gt;N41 -->
<g id="edge37" class="edge">
<title>N39&#45;&gt;N41</title>
<path fill="none" stroke="black" d="M2065.07,-107.97C2054.14,-90.92 2037.16,-64.46 2024.57,-44.82"/>
<polygon fill="black" stroke="black" points="2027.47,-42.87 2019.12,-36.34 2021.58,-46.65 2027.47,-42.87"/>
</g>
<!-- N42 -->
<g id="node43" class="node">
<title>N42</title>
<polygon fill="none" stroke="black" points="2183,-36 2107,-36 2107,0 2183,0 2183,-36"/>
<text text-anchor="middle" x="2145" y="-14.3" font-family="Times,serif" font-size="14.00">Mutable</text>
</g>
<!-- N39&#45;&gt;N42 -->
<g id="edge38" class="edge">
<title>N39&#45;&gt;N42</title>
<path fill="none" stroke="black" d="M2087.09,-107.97C2098.19,-90.92 2115.41,-64.46 2128.19,-44.82"/>
<polygon fill="black" stroke="black" points="2131.19,-46.63 2133.71,-36.34 2125.32,-42.81 2131.19,-46.63"/>
</g>
<!-- N43 -->
<g id="node44" class="node">
<title>N43</title>
<polygon fill="none" stroke="black" points="2309,-36 2255,-36 2255,0 2309,0 2309,-36"/>
<text text-anchor="middle" x="2282" y="-14.3" font-family="Times,serif" font-size="14.00">10</text>
</g>
<!-- N39&#45;&gt;N43 -->
<g id="edge39" class="edge">
<title>N39&#45;&gt;N43</title>
<path fill="none" stroke="black" d="M2109.1,-107.97C2146.42,-88.76 2206.94,-57.62 2245.58,-37.74"/>
<polygon fill="black" stroke="black" points="2247.61,-40.63 2254.9,-32.94 2244.41,-34.41 2247.61,-40.63"/>
</g>
<!-- N45 -->
<g id="node46" class="node">
<title>N45</title>
<polygon fill="none" stroke="black" points="2092,-252 2038,-252 2038,-216 2092,-216 2092,-252"/>
<text text-anchor="middle" x="2065" y="-230.3" font-family="Times,serif" font-size="14.00">s</text>
</g>
<!-- N44&#45;&gt;N45 -->
<g id="edge43" class="edge">
<title>N44&#45;&gt;N45</title>
<path fill="none" stroke="black" d="M2010.44,-323.97C2020.85,-306.99 2036.98,-280.7 2049,-261.09"/>
<polygon fill="black" stroke="black" points="2052.12,-262.7 2054.37,-252.34 2046.16,-259.04 2052.12,-262.7"/>
</g>
</g>
</svg>
